PathFileType	4	(X/Y/Z)	/Users/itak/Documents/Research/Walk-IL/dataset/trc/00002_00004.trc
DataRate	CameraRate	NumFrames	NumMarkers	Units	OrigDataRate	OrigDataStartFrame	OrigNumFrames
100.000000	100.000000	4	54	mm	100.000000	132	531
Frame#	Time	RPSI			LPSI			L3			STRN			T10			C7			CLAV			RBAK			LBAK			LSHO			LUPA			LAEL			LAOL			LWTS			LWPS			LFRA			LIFD			LHPS			LHTS			RSHO			RUPA			RAEL			RAOL			RWTS			RWPS			RFRA			RIFD			RHTS			RHPS			RBHD			LFHD			RFHD			LBHD			LHIP			RHIP			RASI			LASI			LKNE			LTHI			LANK			LTIP			LTOE			LMT1			LMT5			LHEE			RKNE			RTHI			RANK			RTIP			RTOE			RMT1			RMT5			RHEE			*53			
		X1	Y1	Z1	X2	Y2	Z2	X3	Y3	Z3	X4	Y4	Z4	X5	Y5	Z5	X6	Y6	Z6	X7	Y7	Z7	X8	Y8	Z8	X9	Y9	Z9	X10	Y10	Z10	X11	Y11	Z11	X12	Y12	Z12	X13	Y13	Z13	X14	Y14	Z14	X15	Y15	Z15	X16	Y16	Z16	X17	Y17	Z17	X18	Y18	Z18	X19	Y19	Z19	X20	Y20	Z20	X21	Y21	Z21	X22	Y22	Z22	X23	Y23	Z23	X24	Y24	Z24	X25	Y25	Z25	X26	Y26	Z26	X27	Y27	Z27	X28	Y28	Z28	X29	Y29	Z29	X30	Y30	Z30	X31	Y31	Z31	X32	Y32	Z32	X33	Y33	Z33	X34	Y34	Z34	X35	Y35	Z35	X36	Y36	Z36	X37	Y37	Z37	X38	Y38	Z38	X39	Y39	Z39	X40	Y40	Z40	X41	Y41	Z41	X42	Y42	Z42	X43	Y43	Z43	X44	Y44	Z44	X45	Y45	Z45	X46	Y46	Z46	X47	Y47	Z47	X48	Y48	Z48	X49	Y49	Z49	X50	Y50	Z50	X51	Y51	Z51	X52	Y52	Z52	X53	Y53	Z53	X54	Y54	Z54	

133	1.32	-1230.419799804688	1069.759887695312	-165.2740173339844	-1237.83935546875	1064.601684570312	-328.5192565917969	-1238.796020507812	1129.203125	-255.3662414550781	-1020.525634765625	1323.792114257812	-252.7464447021484	-1269.381713867188	1270.895751953125	-257.7064819335938	-1227.297729492188	1539.373046875	-267.1500854492188	-1065.687866210938	1449.396240234375	-257.8087158203125	-1276.636596679688	1401.104125976562	-188.5990295410156	-1240.675537109375	1497.77880859375	-365.3933715820312	-1135.695556640625	1506.461669921875	-436.2230834960938	-1159.88232421875	1381.196166992188	-515.4108276367188	-1155.689086914062	1162.184326171875	-535.5746459960938	-1218.484252929688	1150.562377929688	-450.2281188964844	-1067.912719726562	911.910888671875	-469.1797180175781	-1141.51513671875	895.0353393554688	-515.8011474609375	-1140.95849609375	1046.173828125	-538.0720825195312	-1036.574096679688	731.0382690429688	-445.788818359375	-1105.536987304688	806.8121948242188	-511.7326965332031	-1041.2353515625	820.9374389648438	-481.3814392089844	-1153.238403320312	1527.118041992188	-90.42902374267578	-1166.405029296875	1454.156616210938	-18.19210433959961	-1195.534790039062	1184.252563476562	1.106463432312012	-1195.548950195312	1157.1474609375	-95.89180755615234	-1064.58642578125	925.8729858398438	-25.9412670135498	-1133.104370117188	911.318603515625	36.09659194946289	-1182.017333984375	1109.333740234375	16.37858200073242	-1049.072387695312	742.139892578125	-41.74896240234375	-1032.348876953125	816.2799072265625	-8.652405738830566	-1091.34814453125	811.1575317382812	37.18210601806641	-1167.097778320312	1730.232177734375	-326.9528503417969	-988.1643676757812	1728.3193359375	-201.0940093994141	-986.3579711914062	1729.424926757812	-299.2869873046875	-1162.461547851562	1723.707763671875	-182.5767669677734	-1146.1201171875	963.3822631835938	-437.4832458496094	-1114.05712890625	964.0860595703125	-65.11432647705078	-1013.411193847656	994.6260986328125	-144.2912902832031	-1027.420288085938	1009.254089355469	-379.1762084960938	-1114.9755859375	517.7899780273438	-392.2780151367188	-1132.218872070312	654.5653076171875	-427.2699584960938	-1215.06982421875	42.40134811401367	-395.5172424316406	-1200.088256835938	289.7937927246094	-412.6873779296875	-998.43310546875	41.11077117919922	-324.1970520019531	-1058.104248046875	49.66632461547852	-309.0890197753906	-1089.990966796875	39.81297302246094	-411.1687316894531	-1286.769165039062	48.64106369018555	-343.7498779296875	-1115.5205078125	527.230224609375	-116.1073684692383	-1094.301513671875	793.9970092773438	-68.47299957275391	-1233.607788085938	48.11008453369141	-135.5798187255859	-1142.996948242188	404.9607543945312	-115.4239273071289	-1001.908630371094	45.06190490722656	-177.3802642822266	-1064.756713867188	50.25695419311523	-208.3083190917969	-1085.4501953125	45.63114929199219	-113.514778137207	-1289.805297851562	47.19650268554688	-179.6438293457031	nan	nan	nan	
134	1.33	-1230.020751953125	1069.84130859375	-164.8597412109375	-1237.558227539062	1064.645874023438	-328.1324462890625	-1238.315673828125	1129.250732421875	-254.9184112548828	-1019.889343261719	1323.720947265625	-252.3669586181641	-1268.774291992188	1270.951904296875	-257.1721801757812	-1226.596313476562	1539.425170898438	-266.5738525390625	-1065.001342773438	1449.308959960938	-257.3594055175781	-1275.971435546875	1401.142456054688	-188.0261688232422	-1240.0361328125	1497.864135742188	-364.8214721679688	-1135.06201171875	1506.488647460938	-435.7055053710938	-1159.38232421875	1381.29736328125	-514.9252319335938	-1155.389282226562	1162.279907226562	-535.1973266601562	-1218.091674804688	1150.680297851562	-449.8045959472656	-1067.765991210938	911.9306030273438	-468.9258422851562	-1141.29345703125	895.1199951171875	-515.5001831054688	-1140.65283203125	1046.244018554688	-537.7160034179688	-1036.516845703125	731.06591796875	-445.6183471679688	-1105.360473632812	806.8763427734375	-511.44970703125	-1041.052978515625	820.9518432617188	-481.0927124023438	-1152.4462890625	1527.07421875	-89.89454650878906	-1165.60888671875	1454.0947265625	-17.66116333007812	-1194.8330078125	1184.168212890625	1.531893372535706	-1194.815673828125	1157.10546875	-95.43428039550781	-1063.821533203125	925.8224487304688	-25.72132682800293	-1132.292602539062	911.2324829101562	36.3563117980957	-1181.289672851562	1109.238647460938	16.76581573486328	-1048.155517578125	742.1866455078125	-41.64717102050781	-1031.533813476562	816.27978515625	-8.523525238037109	-1090.518432617188	811.1185302734375	37.37893295288086	-1166.450317382812	1730.186157226562	-326.3269348144531	-987.5843505859375	1728.393188476562	-200.3793182373047	-985.7127685546875	1729.542602539062	-298.5699157714844	-1161.890747070312	1723.533203125	-181.9523162841797	-1145.821533203125	963.3796997070312	-437.0990295410156	-1113.69287109375	964.0693969726562	-64.7864990234375	-1013.047729492188	994.5137329101562	-143.9575347900391	-1027.495849609375	1009.027954101562	-378.95654296875	-1115.0693359375	517.7674560546875	-392.240234375	-1132.2646484375	654.5779418945312	-427.1134033203125	-1215.083862304688	42.27754592895508	-395.6211242675781	-1200.216674804688	289.8286743164062	-412.67919921875	-998.4613037109375	41.12306594848633	-324.2209167480469	-1058.140991210938	49.66786193847656	-309.1264343261719	-1090.016235351562	39.77602386474609	-411.2340698242188	-1286.78076171875	48.61716461181641	-343.816650390625	-1115.337524414062	527.2224731445312	-115.9151306152344	-1093.926025390625	793.8926391601562	-68.16828918457031	-1233.6044921875	48.116455078125	-135.5748596191406	-1142.880493164062	404.9303283691406	-115.3021545410156	-1001.910034179688	45.06791305541992	-177.3808898925781	-1064.75244140625	50.26552581787109	-208.2999267578125	-1085.44189453125	45.6306266784668	-113.5161666870117	-1289.779174804688	47.21644973754883	-179.6442108154297	nan	nan	nan	
135	1.34	-1229.6083984375	1069.927001953125	-164.4297027587891	-1237.27490234375	1064.703369140625	-327.7275085449219	-1237.812255859375	1129.300659179688	-254.4501800537109	-1019.2314453125	1323.650634765625	-251.9683990478516	-1268.148681640625	1271.0146484375	-256.6177062988281	-1225.85888671875	1539.4765625	-265.9889221191406	-1064.2880859375	1449.222534179688	-256.8866882324219	-1275.283081054688	1401.190795898438	-187.4233703613281	-1239.365966796875	1497.942504882812	-364.2328796386719	-1134.401489257812	1506.519653320312	-435.1732482910156	-1158.871704101562	1381.398193359375	-514.4180297851562	-1155.094604492188	1162.373291015625	-534.810546875	-1217.701293945312	1150.797485351562	-449.3747863769531	-1067.635620117188	911.94580078125	-468.7061462402344	-1141.071899414062	895.2058715820312	-515.20166015625	-1140.362182617188	1046.314819335938	-537.3640747070312	-1036.444580078125	731.0753173828125	-445.4742126464844	-1105.177368164062	806.9434814453125	-511.1792602539062	-1040.827392578125	820.9595336914062	-480.7871704101562	-1151.619018554688	1527.014404296875	-89.34363555908203	-1164.77978515625	1454.033813476562	-17.10958480834961	-1194.111694335938	1184.086669921875	1.972354412078857	-1194.092407226562	1157.068725585938	-94.97616577148438	-1063.045654296875	925.7825317382812	-25.51895713806152	-1131.44970703125	911.1446533203125	36.60837173461914	-1180.551879882812	1109.137939453125	17.15668296813965	-1047.191772460938	742.2498779296875	-41.59567260742188	-1030.692993164062	816.2694091796875	-8.438410758972168	-1089.652954101562	811.0816650390625	37.54934692382812	-1165.754028320312	1730.12939453125	-325.6973571777344	-986.9888916015625	1728.48193359375	-199.6420593261719	-985.0350952148438	1729.678344726562	-297.8360900878906	-1161.317749023438	1723.349487304688	-181.3109588623047	-1145.52392578125	963.3790893554688	-436.6986694335938	-1113.331420898438	964.0496826171875	-64.44447326660156	-1012.696899414062	994.3888549804688	-143.6065368652344	-1027.521606445312	1008.82373046875	-378.7149963378906	-1115.18017578125	517.7454223632812	-392.1979675292969	-1132.338134765625	654.595458984375	-426.9465637207031	-1215.121459960938	42.13384628295898	-395.7226867675781	-1200.365844726562	289.8684387207031	-412.6681213378906	-998.4931030273438	41.1362190246582	-324.2463073730469	-1058.182250976562	49.67400741577148	-309.1690368652344	-1090.04345703125	39.73731231689453	-411.2994689941406	-1286.79296875	48.58423614501953	-343.8921813964844	-1115.17919921875	527.2115478515625	-115.717414855957	-1093.516845703125	793.8176879882812	-67.92374420166016	-1233.596801757812	48.12292098999023	-135.5664825439453	-1142.776611328125	404.8932189941406	-115.1754913330078	-1001.914184570312	45.07729339599609	-177.3815307617188	-1064.749145507812	50.2783317565918	-208.2884674072266	-1085.43408203125	45.63056945800781	-113.5167694091797	-1289.756225585938	47.23154449462891	-179.6343231201172	nan	nan	nan	
136	1.35	-1229.180786132812	1070.016235351562	-163.9837341308594	-1236.970703125	1064.769897460938	-327.2929992675781	-1237.296508789062	1129.354125976562	-253.9653625488281	-1018.557983398438	1323.578491210938	-251.5441284179688	-1267.513671875	1271.084228515625	-256.0447998046875	-1225.0810546875	1539.528076171875	-265.3885192871094	-1063.549682617188	1449.135620117188	-256.3860168457031	-1274.570922851562	1401.24951171875	-186.7896728515625	-1238.665283203125	1498.022338867188	-363.6214599609375	-1133.719116210938	1506.55419921875	-434.6155395507812	-1158.347290039062	1381.49951171875	-513.8837890625	-1154.790771484375	1162.467041015625	-534.4077758789062	-1217.310791015625	1150.912353515625	-448.9334106445312	-1067.497924804688	911.9636840820312	-468.5044250488281	-1140.84765625	895.2950439453125	-514.9031982421875	-1140.075317382812	1046.39111328125	-537.0106201171875	-1036.338745117188	731.072509765625	-445.3501281738281	-1104.997314453125	807.0159301757812	-510.9233703613281	-1040.565063476562	820.9655151367188	-480.4738464355469	-1150.758911132812	1526.942260742188	-88.77168273925781	-1163.916259765625	1453.97314453125	-16.53276252746582	-1193.369384765625	1184.008056640625	2.432693719863892	-1193.381469726562	1157.038452148438	-94.51474761962891	-1062.256958007812	925.7529907226562	-25.32857131958008	-1130.581909179688	911.0535278320312	36.85561752319336	-1179.803466796875	1109.032592773438	17.55631828308105	-1046.203857421875	742.3203735351562	-41.58544921875	-1029.812866210938	816.2444458007812	-8.377625465393066	-1088.751953125	811.0396728515625	37.69360733032227	-1165.013427734375	1730.0634765625	-325.0603637695312	-986.3796997070312	1728.583618164062	-198.8754119873047	-984.32666015625	1729.832397460938	-297.0787353515625	-1160.738647460938	1723.161499023438	-180.6536254882812	-1145.242553710938	963.3831176757812	-436.2879943847656	-1112.976196289062	964.0223388671875	-64.09730529785156	-1012.35986328125	994.2508544921875	-143.2397308349609	-1027.456665039062	1008.648376464844	-378.43505859375	-1115.298217773438	517.7233276367188	-392.1498107910156	-1132.431762695312	654.6181640625	-426.7708129882812	-1215.179809570312	41.9747200012207	-395.8210144042969	-1200.530639648438	289.9132080078125	-412.6557312011719	-998.5283203125	41.15098190307617	-324.2731323242188	-1058.23046875	49.68393707275391	-309.2166748046875	-1090.07421875	39.69755172729492	-411.3645324707031	-1286.805053710938	48.53982162475586	-343.9793701171875	-1115.036743164062	527.1974487304688	-115.5126342773438	-1093.080078125	793.768310546875	-67.73312377929688	-1233.582763671875	48.1301383972168	-135.5531311035156	-1142.67822265625	404.8487854003906	-115.0411071777344	-1001.92138671875	45.09006500244141	-177.3819580078125	-1064.748168945312	50.29549026489258	-208.2741088867188	-1085.428588867188	45.63075637817383	-113.5155258178711	-1289.73681640625	47.23860549926758	-179.6142578125	nan	nan	nan	
